<svg xmlns="http://www.w3.org/2000/svg" viewBox="0 0 520 230" role="img" aria-label="Auto a mobilní aplikace">
  <defs>
    <linearGradient id="halo" x1="0" x2="1">
      <stop offset="0" stop-color="#dbeafe"/>
      <stop offset="1" stop-color="#eef2ff"/>
    </linearGradient>
    <linearGradient id="car" x1="0" x2="1">
      <stop offset="0" stop-color="#174ea6"/>
      <stop offset=".48" stop-color="#2563eb"/>
      <stop offset="1" stop-color="#0f2f6e"/>
    </linearGradient>
    <linearGradient id="screen" x1="0" x2="0" y1="0" y2="1">
      <stop offset="0" stop-color="#ffffff"/>
      <stop offset="1" stop-color="#f0f7ff"/>
    </linearGradient>
    <filter id="drop" x="-20%" y="-20%" width="140%" height="150%">
      <feDropShadow dx="0" dy="14" stdDeviation="12" flood-color="#172554" flood-opacity=".2"/>
    </filter>
  </defs>
  <circle cx="295" cy="116" r="112" fill="url(#halo)" opacity=".75"/>
  <ellipse cx="214" cy="190" rx="156" ry="14" fill="#172554" opacity=".14"/>
  <g filter="url(#drop)">
    <path d="M42 148c17-32 47-50 92-54h69c36 2 65 17 91 45l47 9c12 2 20 12 20 24v11H30v-12c0-12 4-19 12-23z" fill="url(#car)"/>
    <path d="M101 102h101c27 2 50 14 70 36H68c10-19 21-31 33-36z" fill="#1e40af"/>
    <path d="M113 105h41v33H85c9-17 18-28 28-33zM164 105h39c23 1 40 13 55 33h-94z" fill="#9ec9e8"/>
    <path d="M37 160h312c7 0 13 6 13 13v7H31v-8c0-7 2-11 6-12z" fill="#123b8d"/>
    <path d="M49 164h52c7-18 23-29 43-29s36 11 43 29h91c7-18 23-29 43-29s36 11 43 29" fill="none" stroke="#1d4ed8" stroke-width="7" stroke-linecap="round"/>
    <circle cx="144" cy="178" r="25" fill="#111827"/>
    <circle cx="144" cy="178" r="14" fill="#f8fafc"/>
    <circle cx="144" cy="178" r="6" fill="#64748b"/>
    <circle cx="321" cy="178" r="25" fill="#111827"/>
    <circle cx="321" cy="178" r="14" fill="#f8fafc"/>
    <circle cx="321" cy="178" r="6" fill="#64748b"/>
  </g>
  <g filter="url(#drop)">
    <rect x="334" y="28" width="122" height="184" rx="25" fill="#111827"/>
    <rect x="344" y="41" width="102" height="158" rx="17" fill="url(#screen)"/>
    <rect x="380" y="35" width="30" height="5" rx="3" fill="#334155"/>
    <text x="359" y="68" font-family="Inter, Arial, sans-serif" font-size="10" font-weight="800" fill="#0f172a">Moje vozidla</text>
    <rect x="356" y="82" width="78" height="34" rx="10" fill="#eff6ff" stroke="#bfdbfe"/>
    <text x="366" y="101" font-family="Inter, Arial, sans-serif" font-size="7" font-weight="800" fill="#172554">Volkswagen T5.1</text>
    <rect x="356" y="124" width="78" height="22" rx="9" fill="#ecfdf5"/>
    <circle cx="369" cy="135" r="6" fill="#16a34a"/>
    <path d="M366 135l2 2 4-5" fill="none" stroke="#fff" stroke-width="2" stroke-linecap="round"/>
    <text x="382" y="138" font-family="Inter, Arial, sans-serif" font-size="7" font-weight="700" fill="#14532d">Pojištění OK</text>
    <rect x="356" y="153" width="78" height="22" rx="9" fill="#fff7ed"/>
    <circle cx="369" cy="164" r="6" fill="#f97316"/>
    <text x="382" y="167" font-family="Inter, Arial, sans-serif" font-size="7" font-weight="700" fill="#9a3412">STK za 18 dní</text>
  </g>
</svg>
